<?xml version="1.0" encoding="UTF-8" standalone="no"?>
<!-- Created with Inkscape (http://www.inkscape.org/) -->

<svg
   xmlns:dc="http://purl.org/dc/elements/1.1/"
   xmlns:cc="http://creativecommons.org/ns#"
   xmlns:rdf="http://www.w3.org/1999/02/22-rdf-syntax-ns#"
   xmlns:svg="http://www.w3.org/2000/svg"
   xmlns="http://www.w3.org/2000/svg"
   xmlns:sodipodi="http://sodipodi.sourceforge.net/DTD/sodipodi-0.dtd"
   xmlns:inkscape="http://www.inkscape.org/namespaces/inkscape"
   width="744.09448819"
   height="1052.3622047"
   id="svg2"
   version="1.1"
   inkscape:version="0.48.4 r9939"
   sodipodi:docname="New document 1">
  <defs
     id="defs4" />
  <sodipodi:namedview
     id="base"
     pagecolor="#ffffff"
     bordercolor="#666666"
     borderopacity="1.0"
     inkscape:pageopacity="0.0"
     inkscape:pageshadow="2"
     inkscape:zoom="0.35"
     inkscape:cx="375"
     inkscape:cy="520"
     inkscape:document-units="px"
     inkscape:current-layer="layer1"
     showgrid="false"
     inkscape:window-width="1680"
     inkscape:window-height="988"
     inkscape:window-x="-8"
     inkscape:window-y="-8"
     inkscape:window-maximized="1" />
  <metadata
     id="metadata7">
    <rdf:RDF>
      <cc:Work
         rdf:about="">
        <dc:format>image/svg+xml</dc:format>
        <dc:type
           rdf:resource="http://purl.org/dc/dcmitype/StillImage" />
        <dc:title></dc:title>
      </cc:Work>
    </rdf:RDF>
  </metadata>
  <g
     inkscape:label="Layer 1"
     inkscape:groupmode="layer"
     id="layer1">
    <path
       style="fill:#000000"
       d="m 250.84842,768.05895 c 0,-1.29768 20.66277,-101.54486 45.91726,-222.77153 25.2545,-121.22667 45.91727,-221.25915 45.91727,-222.2944 0,-1.03525 17.30718,-1.58217 38.4604,-1.21538 l 38.46039,0.66688 46.4874,222.91172 c 25.56805,122.60145 46.15076,223.26571 45.73937,223.69837 -0.41142,0.43267 -29.85231,-23.84656 -65.42421,-53.95384 l -64.67617,-54.74049 -8.37226,7.13108 c -4.60473,3.92211 -30.21575,25.414 -56.91336,47.75976 -26.69761,22.34576 -52.37848,43.89985 -57.0686,47.89794 -4.69012,3.99813 -8.52749,6.20755 -8.52749,4.90989 z m 234.91502,-92.97006 c -9.57375,-42.85641 -18.23144,-79.757 -19.23929,-82.00132 -1.46827,-3.2696 -9.33351,2.4662 -39.57519,28.86058 l -37.74273,32.94118 56.10964,49.8232 c 30.8603,27.40277 56.50221,49.47985 56.98201,49.06017 0.47982,-0.41968 -6.96069,-35.82738 -16.53444,-78.68381 z m -168.43642,30.02939 c 30.54157,-26.11711 55.86306,-48.18091 56.26997,-49.0307 0.96832,-2.02223 -75.30555,-68.3536 -76.90745,-66.88234 -0.67462,0.6196 -8.89732,35.19779 -18.27267,76.84042 -9.37534,41.64263 -17.66501,78.15386 -18.42149,81.13606 -0.75647,2.98219 -0.66061,5.42217 0.21303,5.42217 0.87365,0 26.57702,-21.36853 57.1186,-47.48561 z m 112.75939,-100.61635 30.9908,-26.17466 -15.24774,-14.26372 c -8.38626,-7.84502 -26.52598,-23.86021 -40.31048,-35.58929 l -25.06273,-21.32561 -41.08043,35.93086 -41.08043,35.93084 41.07853,33.80457 41.07853,33.8046 9.32157,-7.97147 c 5.12686,-4.3843 23.26743,-19.75007 40.31238,-34.14612 z M 370.64337,503.7793 c 0.86984,-1.29265 -9.59976,-12.61967 -23.26579,-25.17117 l -24.84732,-22.8209 -9.90252,47.79683 c -5.44639,26.28825 -10.55288,51.05013 -11.34775,55.02639 -1.27891,6.39755 2.53831,3.79365 33.16831,-22.62566 19.03745,-16.42037 35.32523,-30.91284 36.19507,-32.20549 z m 80.68875,4.85163 c -5.41364,-28.17895 -10.26848,-51.72084 -10.78855,-52.31533 -0.52007,-0.59448 -12.12864,9.14745 -25.79684,21.64874 l -24.85125,22.72961 34.76513,31.99573 c 19.12082,17.59763 35.15873,30.9112 35.63981,29.58571 0.48106,-1.3255 -3.55468,-25.46551 -8.9683,-53.64446 z m -41.83247,-38.84255 28.77096,-24.85303 -11.297,-54.01584 c -6.21336,-29.70872 -11.87128,-55.94539 -12.57316,-58.30371 -1.15167,-3.86962 -4.51579,-4.22222 -34.48842,-3.61479 l -33.21227,0.67308 -11.38063,57.62144 -11.38063,57.62144 27.03629,24.91614 c 14.86996,13.70388 27.64775,24.89188 28.39509,24.86222 0.74735,-0.0297 14.30574,-11.23779 30.12977,-24.90695 z"
       id="path2996"
       inkscape:connector-curvature="0" />
  </g>
</svg>
