<?xml version="1.0" encoding="UTF-8" standalone="no"?>
<!-- Created with Inkscape (http://www.inkscape.org/) -->

<svg
   xmlns:dc="http://purl.org/dc/elements/1.1/"
   xmlns:cc="http://creativecommons.org/ns#"
   xmlns:rdf="http://www.w3.org/1999/02/22-rdf-syntax-ns#"
   xmlns:svg="http://www.w3.org/2000/svg"
   xmlns="http://www.w3.org/2000/svg"
   xmlns:sodipodi="http://sodipodi.sourceforge.net/DTD/sodipodi-0.dtd"
   xmlns:inkscape="http://www.inkscape.org/namespaces/inkscape"
   width="744.09448819"
   height="1052.3622047"
   id="svg2"
   version="1.1"
   inkscape:version="0.48.4 r9939"
   sodipodi:docname="ComAroundSLU.svg"
   inkscape:export-filename="C:\Users\DPeterson\Desktop\ComAroundSLU.png"
   inkscape:export-xdpi="90"
   inkscape:export-ydpi="90">
  <defs
     id="defs4" />
  <sodipodi:namedview
     id="base"
     pagecolor="#ffffff"
     bordercolor="#666666"
     borderopacity="1.0"
     inkscape:pageopacity="0.0"
     inkscape:pageshadow="2"
     inkscape:zoom="0.35"
     inkscape:cx="167.74711"
     inkscape:cy="476.76143"
     inkscape:document-units="px"
     inkscape:current-layer="layer1"
     showgrid="false"
     inkscape:window-width="1680"
     inkscape:window-height="988"
     inkscape:window-x="-8"
     inkscape:window-y="-8"
     inkscape:window-maximized="1" />
  <metadata
     id="metadata7">
    <rdf:RDF>
      <cc:Work
         rdf:about="">
        <dc:format>image/svg+xml</dc:format>
        <dc:type
           rdf:resource="http://purl.org/dc/dcmitype/StillImage" />
        <dc:title></dc:title>
      </cc:Work>
    </rdf:RDF>
  </metadata>
  <g
     inkscape:label="Layer 1"
     inkscape:groupmode="layer"
     id="layer1">
    <g
       id="g3794">
      <path
         style="fill:#e2e9e9;fill-opacity:1"
         d="m 237.07987,774.6223 c -0.79254,-0.7064 -1.43564,-3.52427 -1.42912,-6.26186 0.007,-2.73758 25.71289,-124.59425 57.12525,-270.79261 45.65768,-212.49842 57.87739,-266.31316 60.92233,-268.29789 2.82432,-1.84091 15.65322,-2.4827 49.62791,-2.4827 40.42898,0 46.3646,0.39665 50.45772,3.37179 4.1016,2.98136 11.25757,34.1592 61.80065,269.26126 31.43917,146.23921 57.1803,268.27378 57.20252,271.18797 0.0951,12.365 -7.63748,7.21925 -87.64671,-58.32944 -42.71571,-34.99544 -78.75084,-63.39066 -80.07806,-63.10061 -1.32723,0.29004 -37.22047,28.92272 -79.76277,63.62801 -73.76111,60.17311 -82.88824,66.5686 -88.21972,61.81608 z M 524.2944,652.23911 c -10.29203,-44.8413 -19.15018,-82.69643 -19.68474,-84.12252 -0.60237,-1.60689 -16.08664,10.1159 -40.71926,30.82777 -21.86094,18.38134 -39.84993,33.90214 -39.97554,34.49074 -0.37403,1.75248 116.81824,102.36065 118.00329,101.30431 0.59893,-0.53394 -7.33172,-37.65907 -17.62375,-82.5003 z m -196.33124,29.78511 59.66173,-49.56779 -19.25449,-16.11955 c -46.13108,-38.62042 -63.70317,-52.87717 -64.29819,-52.16705 -0.78004,0.9309 -38.34315,163.95387 -38.24377,165.97698 0.0391,0.79476 0.61143,1.44509 1.27198,1.44509 0.66055,0 28.04878,-22.30548 60.86274,-49.56768 z m 108.69215,-95.17799 c 18.42654,-14.9563 38.69578,-31.54711 45.04282,-36.86847 l 11.54009,-9.67521 -19.10517,-17.20966 c -10.50798,-9.4653 -30.53121,-26.77913 -44.49623,-38.47519 l -25.39095,-21.26552 -41.61453,35.20381 c -22.88797,19.3621 -43.90716,37.12733 -46.70927,39.47827 l -5.09476,4.27442 44.68664,35.87618 c 24.57764,19.73191 45.35084,35.87132 46.16261,35.86541 0.81181,-0.005 16.55223,-12.24776 34.97875,-27.20404 z m 46.37302,-128.15106 c -5.53101,-27.40729 -10.4782,-50.22113 -10.99385,-50.69743 -1.30946,-1.20961 -46.18651,38.89073 -46.18651,41.2704 0,2.15675 65.27483,61.00742 66.47775,59.93517 0.41747,-0.37219 -3.76627,-23.10084 -9.29739,-50.50814 z m -128.90538,16.75505 c 15.67263,-13.18356 28.49568,-25.09311 28.49568,-26.4657 0,-1.37259 -9.93873,-11.69376 -22.08605,-22.93593 -18.59592,-17.21023 -22.34094,-19.87861 -23.69902,-16.88585 -0.88713,1.95496 -5.54212,22.19562 -10.34442,44.97927 -4.8023,22.78365 -9.32613,43.95072 -10.05298,47.03795 l -1.32153,5.61314 5.25632,-3.6864 c 2.89097,-2.02753 18.07938,-14.47295 33.752,-27.65648 z m 79.53383,-68.75183 c 27.40608,-23.13352 31.0815,-26.96453 30.96247,-32.27282 -0.0745,-3.31281 -6.18092,-33.33476 -13.57014,-66.71544 l -13.43494,-60.69216 -34.48236,0 -34.48237,0 -13.70748,67.26865 -13.70746,67.26866 28.76754,25.69631 c 15.82213,14.13299 29.62021,25.69633 30.66235,25.69633 1.04215,0 15.88873,-11.81229 32.99239,-26.24953 z"
         id="path3010"
         inkscape:connector-curvature="0" />
      <path
         style="fill:#2b2b2b"
         d="m 263.53862,742.48162 c -0.46294,-0.7286 21.77359,-111.80979 49.41451,-246.84704 l 50.25623,-245.52227 41.84058,-0.47504 c 38.64159,-0.43871 41.91609,-0.23614 42.82812,2.64952 1.66996,5.28383 99.28451,484.11653 99.28451,487.02443 0,1.5009 -0.69485,2.7288 -1.54413,2.7288 -0.84928,0 -32.05058,-26.2491 -69.33621,-58.33139 -37.28564,-32.08225 -68.73835,-58.1138 -69.89492,-57.84787 -1.15656,0.26594 -32.95473,26.91249 -70.6626,59.21456 -37.70786,32.3021 -69.1863,58.731 -69.95207,58.731 -0.76577,0 -1.77108,-0.5961 -2.23402,-1.3247 z m 269.31601,-27.9988 c -0.0868,-1.8446 -8.10417,-39.405 -17.8165,-83.46747 -11.20192,-50.82034 -18.54893,-80.43342 -20.09322,-80.98821 -2.80924,-1.00924 -74.84806,62.41867 -75.68751,66.64047 -0.66273,3.3329 108.45545,102.90181 111.63238,101.86311 1.1674,-0.3816 2.05158,-2.2032 1.96485,-4.0479 z M 338.08864,667.46514 c 30.41935,-26.44381 55.56607,-49.40077 55.88162,-51.01548 0.58775,-3.0077 -70.82444,-67.2914 -75.945,-68.36405 -1.4162,-0.29666 -3.05243,0.18396 -3.63607,1.06807 -1.99038,3.01507 -36.9171,163.35874 -35.91434,164.87774 0.54949,0.8323 1.74311,1.5134 2.65248,1.5134 0.90936,0 26.54195,-21.63585 56.96131,-48.07968 z m 109.1473,-99.55117 c 22.27258,-19.02153 40.49559,-35.52027 40.49559,-36.66384 0,-2.87968 -78.43102,-73.59202 -81.62503,-73.59202 -4.12735,0 -85.49041,72.91637 -84.91229,76.09714 0.72547,3.99156 78.13413,68.74334 82.18042,68.74334 1.85116,0 21.58875,-15.56307 43.86131,-34.58462 z m 41.43328,-60.35655 c -0.009,-8.50537 -18.62446,-101.60815 -20.70441,-103.55543 -1.4041,-1.31453 -8.98379,4.65685 -25.54712,20.1264 -12.95287,12.0975 -23.55069,22.79418 -23.55069,23.77039 0,2.04423 66.20676,64.5161 68.3732,64.5161 0.78907,0 1.43214,-2.18586 1.42902,-4.85746 z m -129.5713,-27.99434 c 18.3454,-16.12552 33.35529,-30.44505 33.35529,-31.82119 0,-3.83197 -43.59263,-45.06378 -46.99538,-44.45027 -2.26594,0.40854 -5.18541,11.41288 -12.78819,48.20252 -9.93053,48.0535 -11.30915,57.38804 -8.47567,57.38804 0.85176,0 16.55854,-13.1936 34.90395,-29.3191 z m 75.63228,-68.43949 c 20.28757,-18.08343 29.41185,-27.40289 29.39914,-30.02791 -0.0368,-7.60752 -24.40886,-119.91076 -26.54622,-122.32183 -3.24326,-3.65861 -62.53568,-3.6065 -65.78399,0.0578 -1.23701,1.39543 -7.7117,30.59384 -14.3882,64.88537 l -12.13908,62.34823 27.83574,26.11836 c 15.30968,14.3651 28.81885,25.90308 30.02039,25.63993 1.20155,-0.26314 15.42255,-12.27813 31.60222,-26.69997 z"
         id="path3000"
         inkscape:connector-curvature="0" />
    </g>
  </g>
</svg>
