<?xml version="1.0" encoding="UTF-8" standalone="no"?>
<!-- Created with Inkscape (http://www.inkscape.org/) -->

<svg
   xmlns:osb="http://www.openswatchbook.org/uri/2009/osb"
   xmlns:dc="http://purl.org/dc/elements/1.1/"
   xmlns:cc="http://creativecommons.org/ns#"
   xmlns:rdf="http://www.w3.org/1999/02/22-rdf-syntax-ns#"
   xmlns:svg="http://www.w3.org/2000/svg"
   xmlns="http://www.w3.org/2000/svg"
   xmlns:xlink="http://www.w3.org/1999/xlink"
   xmlns:sodipodi="http://sodipodi.sourceforge.net/DTD/sodipodi-0.dtd"
   xmlns:inkscape="http://www.inkscape.org/namespaces/inkscape"
   width="744.09448819"
   height="1052.3622047"
   id="svg2"
   version="1.1"
   inkscape:version="0.48.4 r9939"
   sodipodi:docname="stationsslu2014.svg">
  <defs
     id="defs4">
    <linearGradient
       id="linearGradient3766"
       osb:paint="solid">
      <stop
         style="stop-color:#000000;stop-opacity:1;"
         offset="0"
         id="stop3768" />
    </linearGradient>
    <linearGradient
       inkscape:collect="always"
       xlink:href="#linearGradient3766"
       id="linearGradient3770"
       x1="128.3424"
       y1="526.0894"
       x2="637.03073"
       y2="526.0894"
       gradientUnits="userSpaceOnUse" />
    <linearGradient
       inkscape:collect="always"
       xlink:href="#linearGradient3766"
       id="linearGradient3822"
       gradientUnits="userSpaceOnUse"
       x1="128.3424"
       y1="526.0894"
       x2="637.03073"
       y2="526.0894" />
  </defs>
  <sodipodi:namedview
     id="base"
     pagecolor="#ffffff"
     bordercolor="#666666"
     borderopacity="1.0"
     inkscape:pageopacity="0.0"
     inkscape:pageshadow="2"
     inkscape:zoom="0.35"
     inkscape:cx="-70.714286"
     inkscape:cy="520"
     inkscape:document-units="px"
     inkscape:current-layer="layer1"
     showgrid="false"
     inkscape:window-width="1680"
     inkscape:window-height="988"
     inkscape:window-x="-8"
     inkscape:window-y="-8"
     inkscape:window-maximized="1" />
  <metadata
     id="metadata7">
    <rdf:RDF>
      <cc:Work
         rdf:about="">
        <dc:format>image/svg+xml</dc:format>
        <dc:type
           rdf:resource="http://purl.org/dc/dcmitype/StillImage" />
        <dc:title></dc:title>
      </cc:Work>
    </rdf:RDF>
  </metadata>
  <g
     inkscape:label="Layer 1"
     inkscape:groupmode="layer"
     id="layer1">
    <g
       id="g3813"
       transform="translate(-20,-20)">
      <path
         inkscape:export-ydpi="90"
         inkscape:export-xdpi="90"
         inkscape:export-filename="C:\Users\DPeterson\Desktop\stationsslu2014.png"
         inkscape:connector-curvature="0"
         id="path2996"
         d="m 356.76115,785.98956 c -20.98823,-5.33451 -35.45075,-12.17088 -57.6773,-27.26381 -32.23796,-21.89118 -47.14332,-27.76967 -70.41996,-27.77265 -10.91721,-10e-4 -18.10799,-1.16166 -18.10799,-2.92173 0,-3.7027 50.94468,-64.84242 54.02995,-64.84242 1.26148,0 8.1335,4.32555 15.27115,9.61233 58.20699,43.11329 136.30378,45.20657 195.33169,5.2356 9.81341,-6.64519 19.77618,-12.0489 22.13947,-12.0083 4.89667,0.0841 53.92622,55.84474 53.92622,61.32949 0,2.59132 -5.04714,3.59334 -18.10799,3.59503 -23.25563,0.003 -38.15244,5.87068 -70.41997,27.73766 -14.01692,9.49896 -31.52131,19.4212 -38.89864,22.04945 -13.06702,4.6552 -56.13995,8.02656 -67.06663,5.24935 z m 61.7013,-10.86313 c 7.37733,-2.58302 24.88172,-12.46828 38.89864,-21.96724 29.27472,-19.8388 42.9924,-25.76293 66.06925,-28.53267 l 16.4399,-1.97314 -21.48822,-25.07471 -21.48826,-25.07472 -17.09115,11.57333 c -48.43606,32.79865 -121.48632,38.0485 -174.37557,12.53176 -9.3303,-4.50146 -22.22042,-11.91291 -28.64472,-16.46991 l -11.68055,-8.28544 -21.63722,25.71737 -21.63722,25.71737 16.76706,1.61426 c 22.41707,2.1582 35.53279,7.80192 65.85479,28.33743 22.22618,15.0526 36.68016,21.87403 57.6773,27.2203 9.90319,2.52154 42.79433,-0.59265 56.33597,-5.33399 z m -235.59657,-75.2908 c -0.64901,-1.14088 -1.30749,-8.85428 -1.4633,-17.14091 -0.43596,-23.18607 -7.09847,-42.10406 -23.55056,-66.87113 -8.27589,-12.45858 -18.2129,-29.6121 -22.08224,-38.11892 -6.48896,-14.26612 -7.02588,-18.25857 -6.91551,-51.42221 0.13877,-41.6989 1.65804,-46.47569 26.81077,-84.29692 17.54122,-26.37609 25.41225,-48.5749 25.74022,-72.59564 0.19108,-13.9959 0.88939,-16.15713 4.98575,-15.43085 5.916,1.0489 59.03954,49.32995 59.03954,53.65778 0,1.73413 -5.31615,11.32637 -11.81366,21.31609 -39.08084,60.08553 -37.47551,142.82921 3.92414,202.26341 4.61563,6.6263 7.97719,13.83503 7.47012,16.01939 -0.9873,4.25312 -55.23584,54.69425 -58.8227,54.69425 -1.17841,0 -2.67357,-0.93345 -3.32257,-2.07434 z m 54.27818,-54.11739 c 0.13118,-1.24239 -2.71617,-6.25267 -6.32741,-11.13396 -9.12593,-12.33544 -21.94442,-41.52492 -26.864,-61.17308 -5.46462,-21.825 -5.45225,-72.51124 0.0231,-94.25749 5.15729,-20.48338 14.34437,-41.4661 25.42646,-58.07244 l 8.49011,-12.72231 -15.68017,-14.62446 c -8.62409,-8.04346 -19.4501,-17.89286 -24.0578,-21.88756 l -8.37764,-7.2631 -1.85344,16.88984 c -2.53754,23.1238 -9.29776,39.45235 -28.18436,68.07613 -18.54941,28.11275 -23.6851,41.31347 -25.98093,66.78112 -2.98122,33.07061 4.97817,58.34836 29.651,94.16691 14.53863,21.10631 22.53369,41.7187 24.7814,63.88995 l 1.63504,16.12794 23.54011,-21.26929 c 12.94706,-11.69812 23.64744,-22.28581 23.77861,-23.5282 z m 308.27479,30.49651 c -15.75097,-14.00951 -28.72836,-27.12327 -28.83865,-29.14166 -0.11025,-2.01839 4.60241,-10.58475 10.47259,-19.03639 20.61878,-29.68595 34.5608,-82.11798 30.67094,-115.34472 -4.02207,-34.35597 -13.79172,-62.27815 -30.75485,-87.89918 -5.82404,-8.79657 -10.58915,-16.94786 -10.58915,-18.11397 0,-3.62311 55.774,-53.2581 59.84524,-53.2581 2.91021,0 4.14373,5.24289 5.05599,21.48959 1.42192,25.32419 8.25287,42.63696 28.6209,72.53866 24.29395,35.6652 31.50611,68.64166 23.50755,107.4848 -4.28706,20.81919 -11.82669,36.7111 -27.58048,58.13353 -15.86327,21.57138 -22.89874,40.54263 -24.43208,65.88143 -0.86,14.21197 -2.52312,22.91867 -4.36464,22.84955 -1.63634,-0.0614 -15.86236,-11.57402 -31.61336,-25.58354 z m 39.28447,-42.13638 c 3.76128,-7.92603 10.8194,-19.86502 15.68469,-26.5311 23.27461,-31.88928 29.97843,-52.97036 28.03269,-88.15287 -1.5112,-27.32551 -6.75202,-41.76146 -24.47556,-67.41845 -17.44967,-25.2605 -25.32138,-43.15646 -29.14059,-66.24956 l -3.43019,-20.74093 -23.36566,21.16786 c -21.91794,19.85632 -23.12525,21.51159 -19.48551,26.71564 10.58872,15.13957 22.93383,40.86067 28.54836,59.48064 5.19833,17.23968 6.22925,26.58295 6.10349,55.31575 -0.13091,29.9136 -1.12162,37.55395 -7.35184,56.69865 -6.51682,20.02527 -16.19461,39.63252 -27.48707,55.68883 -3.99624,5.68209 -3.26379,6.70811 19.43177,27.22011 l 23.58452,21.31545 3.25608,-20.04953 c 1.79084,-11.02722 6.33351,-26.53444 10.09482,-34.46049 z m -245.04751,46.87349 c -40.37584,-11.19602 -76.75019,-41.52438 -95.93987,-79.99314 -14.33301,-28.7328 -18.25629,-46.36475 -17.84702,-80.20784 0.39151,-32.37476 6.29773,-54.97321 20.96271,-80.20784 33.9706,-58.45463 95.91946,-87.59244 161.85098,-76.12707 23.26831,4.04631 54.91179,19.59311 73.36598,36.04552 16.32758,14.55646 37.42299,47.20826 44.91173,69.51498 8.14629,24.2655 10.22415,66.52792 4.50114,91.55125 -13.27466,58.0421 -57.69319,105.09578 -112.89197,119.58931 -19.92169,5.23082 -59.75495,5.14746 -78.91368,-0.16512 z m 73.54835,-5.3664 c 26.58974,-6.98165 49.15726,-20.34735 69.96559,-41.43728 53.11632,-53.8352 60.46736,-134.46489 18.10024,-198.53252 -38.10409,-57.62114 -107.43798,-81.89162 -168.57833,-59.01123 -36.43001,13.63311 -69.12381,44.13795 -85.54929,79.82147 -21.07929,45.79368 -20.66137,91.31365 1.26051,137.29398 24.51502,51.4194 75.86331,85.3607 129.92663,85.88178 10.38715,0.10012 26.08074,-1.70719 34.87465,-4.0162 z M 244.89968,367.94111 c -9.85111,-11.78917 -21.60846,-25.55663 -26.12744,-30.59436 -4.51899,-5.03773 -8.21634,-10.16739 -8.21634,-11.39924 0,-1.23185 9.37969,-2.79953 20.84375,-3.48373 24.05924,-1.43593 42.74641,-9.0885 68.69526,-28.13135 33.12293,-24.30763 56.29719,-31.43918 92.74626,-28.54134 26.9018,2.1388 42.85866,8.5289 69.33662,27.76658 29.23977,21.2443 43.02528,26.93181 69.62726,28.72622 12.1726,0.82109 22.13199,2.43026 22.13199,3.57593 0,1.96457 -15.19861,19.82484 -43.21293,50.78057 l -12.36231,13.6603 -19.89411,-13.71829 c -60.93902,-42.0214 -140.17645,-40.77127 -198.18018,3.12669 -7.02523,5.31678 -13.83145,9.66688 -15.12494,9.66688 -1.29348,0 -10.41179,-9.64569 -20.26289,-21.43486 z m 34.13285,3.10688 c 4.46416,-3.45062 16.04611,-10.09948 25.73766,-14.77522 53.73802,-25.92624 127.8871,-20.5843 176.00161,12.67972 l 16.783,11.60295 22.05327,-25.32196 22.05326,-25.32195 -18.84071,-1.94867 c -23.53548,-2.43425 -38.82055,-9.12032 -66.00816,-28.87361 -25.10186,-18.23787 -40.95472,-25.00567 -64.36545,-27.47849 -30.64025,-3.23645 -54.7462,4.59314 -86.98676,28.25325 -23.62902,17.34041 -44.32373,26.34608 -64.35104,28.00349 -9.42699,0.78016 -17.13999,1.94165 -17.13999,2.5811 0,3.71052 42.04818,49.71655 44.26398,48.4304 1.47546,-0.85642 6.33516,-4.38038 10.79933,-7.83101 z"
         style="fill:url(#linearGradient3822);fill-opacity:1;stroke:#c44747;stroke-opacity:0.81568627" />
      <path
         inkscape:connector-curvature="0"
         id="path3800"
         d="M 356.55418,674.7527 C 300.1651,664.67955 253.77519,618.66157 238.18581,557.33333 212.96899,458.13102 306.04638,353.92362 403.02572,372.78219 c 98.64164,19.18182 152.50571,133.66597 104.90655,222.97117 -30.46394,57.15619 -92.48043,89.52059 -151.37809,78.99934 z"
         style="fill:#aa0000;fill-opacity:1;stroke:#c44747;stroke-width:2.85714293;stroke-opacity:0.81568627" />
      <path
         inkscape:connector-curvature="0"
         id="path3802"
         d="m 188.45135,665.16958 c -3.42801,-18.60446 -14.65957,-44.84924 -26.02278,-60.8074 -3.17882,-4.46425 -9.86216,-16.25481 -14.85186,-26.20126 -7.74677,-15.4424 -9.25333,-21.95932 -10.31222,-44.6073 -1.54592,-33.06505 1.8183,-45.64009 20.30008,-75.87907 19.17196,-31.36823 27.00383,-48.91892 31.29845,-70.13771 l 3.60113,-17.79236 20.9986,19.45171 20.9986,19.45171 -11.47222,20 c -18.07616,31.51291 -23.68889,53.85415 -23.81099,94.77862 -0.13263,44.45612 3.20225,59.80084 20.48636,94.26351 l 14.06165,28.03744 -13.50593,13.8298 c -7.42827,7.6064 -16.83093,16.23671 -20.89481,19.17848 l -7.38886,5.34866 -3.4852,-18.91483 0,0 z"
         style="fill:#aa0000;fill-opacity:1;stroke:#c44747;stroke-width:2.85714293;stroke-opacity:0.81568627" />
      <path
         inkscape:connector-curvature="0"
         id="path3804"
         d="m 248.44664,356.50504 c -9.53553,-10.60714 -17.36192,-20.72722 -17.39198,-22.48905 -0.0301,-1.76184 6.36916,-4.0555 14.22049,-5.09701 18.20867,-2.41547 35.54109,-9.88014 57.38637,-24.71499 9.53506,-6.47513 25.27621,-15.7985 34.98033,-20.71859 15.88092,-8.05178 20.2132,-8.94598 43.35815,-8.94926 30.09089,-0.004 39.64006,3.5357 79.93359,29.63209 26.24982,17.00087 49.11069,25.90824 66.49384,25.90824 l 9.67597,0 -5.85509,7.85714 c -3.22028,4.32143 -12.08111,14.79926 -19.69071,23.28407 l -13.83561,15.42693 -19.78957,-11.66228 C 443.0603,344.43169 426.84483,340.30602 381,340.32001 c -45.43777,0.0139 -61.84342,4.22867 -95.29201,24.48156 -9.98204,6.04405 -18.5485,10.98918 -19.03659,10.98918 -0.48809,0 -8.68923,-8.67857 -18.22476,-19.28571 z"
         style="fill:#aa0000;fill-opacity:1;stroke:#c44747;stroke-width:2.85714293;stroke-opacity:0.81568627" />
      <path
         inkscape:connector-curvature="0"
         id="path3806"
         d="m 548.46308,664.67655 -21.10835,-19.17944 7.9367,-12.57256 c 11.10468,-17.59095 23.46993,-48.6041 27.00635,-67.73432 4.35377,-23.55174 3.65532,-64.5029 -1.44465,-84.70135 -2.43792,-9.6554 -10.15221,-29.2034 -17.14286,-43.44 C 536.71962,422.81227 531,409.73604 531,407.99057 c 0,-1.74546 8.67857,-11.00757 19.28571,-20.58245 l 19.28572,-17.40888 3.58334,17.66498 c 4.30604,21.22775 12.1395,38.69086 31.75486,70.79107 18.73096,30.65289 21.32291,40.61683 19.74587,75.90689 -1.39797,31.28289 -2.01675,32.99506 -26.3304,72.85715 -17.41997,28.55992 -20.40199,35.5524 -25.17509,59.03262 l -3.57858,17.60403 -21.10835,-19.17943 z"
         style="fill:#aa0000;fill-opacity:1;stroke:#c44747;stroke-width:2.85714293;stroke-opacity:0.81568627" />
      <g
         id="g3810">
        <path
           style="fill:#aa0000;fill-opacity:1;stroke:#c44747;stroke-width:2.85714293;stroke-opacity:0.81568627"
           d="m 348.79751,774.28517 c -6.71138,-2.45504 -25.77936,-12.69674 -42.3733,-22.75933 -31.28901,-18.97371 -45.15845,-25.02586 -66.6192,-29.07034 l -12.62356,-2.37903 11.19499,-12.9713 c 6.15724,-7.13421 14.70757,-17.16965 19.00073,-22.30098 l 7.80574,-9.3297 19.60061,11.64451 c 37.40911,22.22435 68.73056,29.29846 113.13415,25.55196 31.50533,-2.65823 55.51326,-10.22985 80.42559,-25.36462 l 18.31568,-11.12716 19.07263,21.86861 19.07266,21.86861 -17.49212,3.54036 c -18.42936,3.73005 -36.71615,11.99501 -61.4072,27.75382 -32.48241,20.73156 -44.68616,25.3052 -70.59552,26.45732 -17.23373,0.76633 -27.86113,-0.21827 -36.51188,-3.38273 z"
           id="path3808"
           inkscape:connector-curvature="0" />
      </g>
    </g>
  </g>
</svg>
